<svg xmlns="http://www.w3.org/2000/svg" xmlns:xlink="http://www.w3.org/1999/xlink" width="64" zoomAndPan="magnify" viewBox="0 0 48 48" height="64" preserveAspectRatio="xMidYMid meet" version="1.0"><defs><clipPath id="f9e4889025"><path d="M 0.488281 10 L 47.507812 10 L 47.507812 47 L 0.488281 47 Z M 0.488281 10 " clip-rule="nonzero"/></clipPath><clipPath id="5c3a45dfc2"><path d="M 14.519531 27.417969 L 28.476562 27.417969 L 28.476562 41.375 L 14.519531 41.375 Z M 14.519531 27.417969 " clip-rule="nonzero"/></clipPath></defs><g clip-path="url(#f9e4889025)"><path fill="#ffffff" d="M 45.886719 22.175781 L 43.441406 22.175781 C 42.585938 19.9375 41.171875 18.089844 39.40625 16.605469 L 38.875 11.554688 C 38.753906 10.457031 37.519531 9.878906 36.597656 10.484375 L 33.347656 12.613281 C 32.6875 19.550781 26.828125 24.980469 19.726562 24.980469 C 15.667969 24.980469 12.023438 23.214844 9.503906 20.398438 C 8.746094 21.722656 8.199219 23.191406 7.90625 24.820312 C 7.730469 25.84375 6.148438 25.746094 6.1875 24.714844 C 6.203125 24.480469 6.277344 24.230469 6.4375 23.980469 C 7.09375 22.949219 5.988281 21.695312 4.867188 22.246094 C 4.347656 22.511719 3.898438 22.527344 3.542969 22.292969 C 3.179688 22.058594 2.953125 21.59375 2.976562 21.140625 C 3.011719 20.671875 3.292969 20.292969 3.808594 20.035156 C 4.40625 19.746094 4.648438 19.019531 4.351562 18.414062 C 4.058594 17.816406 3.332031 17.574219 2.726562 17.871094 C 1.429688 18.519531 0.644531 19.65625 0.566406 20.996094 C 0.484375 22.3125 1.136719 23.617188 2.21875 24.320312 C 2.6875 24.636719 3.210938 24.8125 3.761719 24.859375 C 3.808594 26.878906 5.527344 28.53125 7.554688 28.53125 C 7.601562 28.53125 7.648438 28.53125 7.699219 28.523438 C 7.949219 32.871094 9.933594 36.253906 12.835938 38.625 L 11.707031 45.113281 C 11.554688 46.007812 12.25 46.832031 13.160156 46.832031 L 19.90625 46.832031 C 20.710938 46.832031 21.375 46.179688 21.375 45.363281 L 21.375 42.464844 C 24.425781 43.070312 27.660156 43.070312 30.710938 42.472656 L 30.710938 45.363281 C 30.710938 46.171875 31.363281 46.832031 32.179688 46.832031 L 38.921875 46.832031 C 39.835938 46.832031 40.527344 46.007812 40.375 45.113281 L 39.246094 38.625 C 41.085938 37.117188 42.554688 35.21875 43.441406 32.921875 L 45.886719 32.921875 C 46.695312 32.921875 47.355469 32.261719 47.355469 31.453125 L 47.355469 23.640625 C 47.355469 22.835938 46.695312 22.175781 45.886719 22.175781 Z M 40.085938 25.015625 C 40.085938 25.621094 39.59375 26.113281 38.980469 26.113281 C 38.375 26.113281 37.875 25.617188 37.875 25.015625 L 37.875 23.167969 C 37.875 22.5625 38.375 22.070312 38.980469 22.070312 C 39.59375 22.070312 40.085938 22.5625 40.085938 23.167969 Z M 12.691406 16.621094 C 12.683594 16.613281 12.683594 16.621094 12.675781 16.632812 C 12.691406 16.65625 12.707031 16.671875 12.722656 16.695312 C 12.707031 16.671875 12.699219 16.648438 12.691406 16.621094 Z M 12.691406 16.621094 " fill-opacity="1" fill-rule="nonzero"/></g><path fill="#ffffff" d="M 19.726562 0.0351562 C 13.503906 0.0351562 8.460938 5.078125 8.460938 11.300781 C 8.460938 17.519531 13.503906 22.566406 19.726562 22.566406 C 25.945312 22.566406 30.992188 17.519531 30.992188 11.300781 C 30.992188 5.078125 25.949219 0.0351562 19.726562 0.0351562 Z M 24.984375 13.992188 C 24.984375 15.964844 23.371094 17.421875 20.933594 17.785156 L 20.933594 18.585938 C 20.933594 19.253906 20.394531 19.796875 19.726562 19.796875 C 19.058594 19.796875 18.515625 19.253906 18.515625 18.585938 L 18.515625 17.769531 C 15.707031 17.332031 14.464844 15.683594 14.464844 13.992188 C 14.464844 13.324219 15.007812 12.785156 15.675781 12.785156 C 16.34375 12.785156 16.882812 13.324219 16.882812 13.992188 C 16.882812 15.945312 22.570312 15.917969 22.570312 13.992188 C 22.570312 11.65625 14.46875 13.628906 14.46875 8.605469 C 14.46875 6.632812 16.082031 5.175781 18.519531 4.816406 L 18.519531 4.011719 C 18.519531 3.34375 19.058594 2.804688 19.726562 2.804688 C 20.394531 2.804688 20.933594 3.34375 20.933594 4.011719 L 20.933594 4.816406 C 23.371094 5.175781 24.984375 6.632812 24.984375 8.605469 C 24.984375 9.273438 24.445312 9.816406 23.777344 9.816406 C 23.109375 9.816406 22.570312 9.273438 22.570312 8.605469 C 22.570312 6.695312 16.882812 6.648438 16.882812 8.605469 C 16.882812 10.945312 24.984375 8.96875 24.984375 13.992188 Z M 24.984375 13.992188 " fill-opacity="1" fill-rule="nonzero"/><g clip-path="url(#5c3a45dfc2)"><path fill="#ffffff" d="M 28.476562 34.21875 C 28.476562 37.972656 25.433594 41.019531 21.675781 41.019531 C 17.917969 41.019531 14.875 37.972656 14.875 34.21875 C 14.875 30.460938 17.917969 27.417969 21.675781 27.417969 C 25.433594 27.417969 28.476562 30.460938 28.476562 34.21875 Z M 28.476562 34.21875 " fill-opacity="1" fill-rule="evenodd"/></g></svg>